<svg xmlns="http://www.w3.org/2000/svg" xmlns:xlink="http://www.w3.org/1999/xlink" contentStyleType="text/css" height="330px" preserveAspectRatio="none" style="width:559px;height:330px;background:#FFFFFF;" version="1.1" viewBox="0 0 559 330" width="559px" zoomAndPan="magnify"><defs/><g><!--cluster C++--><g id="cluster_C++"><path d="M8.5,71 L35.5,71 A3.75,3.75 0 0 1 38,73.5 L45,94.6094 L258.5,94.6094 A2.5,2.5 0 0 1 261,97.1094 L261,236.5 A2.5,2.5 0 0 1 258.5,239 L8.5,239 A2.5,2.5 0 0 1 6,236.5 L6,73.5 A2.5,2.5 0 0 1 8.5,71 " fill="none" style="stroke:#000000;stroke-width:1.5;"/><line style="stroke:#000000;stroke-width:1.5;" x1="6" x2="45" y1="94.6094" y2="94.6094"/><text fill="#000000" font-family="sans-serif" font-size="14" font-weight="bold" lengthAdjust="spacing" textLength="26" x="10" y="87.5332">C++</text></g><!--cluster test--><g id="cluster_test"><path d="M101.5,115 L129.5,115 A3.75,3.75 0 0 1 132,117.5 L139,138.6094 L234.5,138.6094 A2.5,2.5 0 0 1 237,141.1094 L237,212.5 A2.5,2.5 0 0 1 234.5,215 L101.5,215 A2.5,2.5 0 0 1 99,212.5 L99,117.5 A2.5,2.5 0 0 1 101.5,115 " fill="none" style="stroke:#000000;stroke-width:1.5;"/><line style="stroke:#000000;stroke-width:1.5;" x1="99" x2="139" y1="138.6094" y2="138.6094"/><text fill="#000000" font-family="sans-serif" font-size="14" font-weight="bold" lengthAdjust="spacing" textLength="27" x="103" y="131.5332">test</text></g><!--cluster python--><g id="cluster_python"><path d="M287.5,71 L336.5,71 A3.75,3.75 0 0 1 339,73.5 L346,94.6094 L549.5,94.6094 A2.5,2.5 0 0 1 552,97.1094 L552,320.5 A2.5,2.5 0 0 1 549.5,323 L287.5,323 A2.5,2.5 0 0 1 285,320.5 L285,73.5 A2.5,2.5 0 0 1 287.5,71 " fill="none" style="stroke:#000000;stroke-width:1.5;"/><line style="stroke:#000000;stroke-width:1.5;" x1="285" x2="346" y1="94.6094" y2="94.6094"/><text fill="#000000" font-family="sans-serif" font-size="14" font-weight="bold" lengthAdjust="spacing" textLength="48" x="289" y="87.5332">python</text></g><!--cluster test--><g id="cluster_test"><path d="M420.5,115 L448.5,115 A3.75,3.75 0 0 1 451,117.5 L458,138.6094 L525.5,138.6094 A2.5,2.5 0 0 1 528,141.1094 L528,212.5 A2.5,2.5 0 0 1 525.5,215 L420.5,215 A2.5,2.5 0 0 1 418,212.5 L418,117.5 A2.5,2.5 0 0 1 420.5,115 " fill="none" style="stroke:#000000;stroke-width:1.5;"/><line style="stroke:#000000;stroke-width:1.5;" x1="418" x2="458" y1="138.6094" y2="138.6094"/><text fill="#000000" font-family="sans-serif" font-size="14" font-weight="bold" lengthAdjust="spacing" textLength="27" x="422" y="131.5332">test</text></g><!--entity gsl--><g id="elem_gsl"><rect fill="#F1F1F1" height="47.6094" rx="2.5" ry="2.5" style="stroke:#181818;stroke-width:0.5;" width="58" x="22" y="151"/><rect fill="#F1F1F1" height="10" style="stroke:#181818;stroke-width:0.5;" width="15" x="60" y="156"/><rect fill="#F1F1F1" height="2" style="stroke:#181818;stroke-width:0.5;" width="4" x="58" y="158"/><rect fill="#F1F1F1" height="2" style="stroke:#181818;stroke-width:0.5;" width="4" x="58" y="162"/><text fill="#000000" font-family="sans-serif" font-size="14" lengthAdjust="spacing" textLength="18" x="37" y="185.5332">gsl</text></g><!--entity boost_test--><g id="elem_boost_test"><rect fill="#F1F1F1" height="47.6094" rx="2.5" ry="2.5" style="stroke:#181818;stroke-width:0.5;" width="106" x="115" y="151"/><rect fill="#F1F1F1" height="10" style="stroke:#181818;stroke-width:0.5;" width="15" x="201" y="156"/><rect fill="#F1F1F1" height="2" style="stroke:#181818;stroke-width:0.5;" width="4" x="199" y="158"/><rect fill="#F1F1F1" height="2" style="stroke:#181818;stroke-width:0.5;" width="4" x="199" y="162"/><text fill="#000000" font-family="sans-serif" font-size="14" lengthAdjust="spacing" textLength="66" x="130" y="185.5332">boost_test</text></g><!--entity pybind11--><g id="elem_pybind11"><rect fill="#F1F1F1" height="47.6094" rx="2.5" ry="2.5" style="stroke:#181818;stroke-width:0.5;" width="98" x="301" y="151"/><rect fill="#F1F1F1" height="10" style="stroke:#181818;stroke-width:0.5;" width="15" x="379" y="156"/><rect fill="#F1F1F1" height="2" style="stroke:#181818;stroke-width:0.5;" width="4" x="377" y="158"/><rect fill="#F1F1F1" height="2" style="stroke:#181818;stroke-width:0.5;" width="4" x="377" y="162"/><text fill="#000000" font-family="sans-serif" font-size="14" lengthAdjust="spacing" textLength="58" x="316" y="185.5332">pybind11</text></g><!--entity numpy--><g id="elem_numpy"><rect fill="#F1F1F1" height="47.6094" rx="2.5" ry="2.5" style="stroke:#181818;stroke-width:0.5;" width="82" x="309" y="259"/><rect fill="#F1F1F1" height="10" style="stroke:#181818;stroke-width:0.5;" width="15" x="371" y="264"/><rect fill="#F1F1F1" height="2" style="stroke:#181818;stroke-width:0.5;" width="4" x="369" y="266"/><rect fill="#F1F1F1" height="2" style="stroke:#181818;stroke-width:0.5;" width="4" x="369" y="270"/><text fill="#000000" font-family="sans-serif" font-size="14" lengthAdjust="spacing" textLength="42" x="324" y="293.5332">numpy</text></g><!--entity pytest--><g id="elem_pytest"><rect fill="#F1F1F1" height="47.6094" rx="2.5" ry="2.5" style="stroke:#181818;stroke-width:0.5;" width="78" x="434" y="151"/><rect fill="#F1F1F1" height="10" style="stroke:#181818;stroke-width:0.5;" width="15" x="492" y="156"/><rect fill="#F1F1F1" height="2" style="stroke:#181818;stroke-width:0.5;" width="4" x="490" y="158"/><rect fill="#F1F1F1" height="2" style="stroke:#181818;stroke-width:0.5;" width="4" x="490" y="162"/><text fill="#000000" font-family="sans-serif" font-size="14" lengthAdjust="spacing" textLength="38" x="449" y="185.5332">pytest</text></g><!--entity via_angle--><g id="elem_via_angle"><rect fill="#98FB98" height="47.6094" rx="2.5" ry="2.5" style="stroke:#181818;stroke-width:0.5;" width="101" x="149.5" y="7"/><rect fill="#98FB98" height="10" style="stroke:#181818;stroke-width:0.5;" width="15" x="230.5" y="12"/><rect fill="#98FB98" height="2" style="stroke:#181818;stroke-width:0.5;" width="4" x="228.5" y="14"/><rect fill="#98FB98" height="2" style="stroke:#181818;stroke-width:0.5;" width="4" x="228.5" y="18"/><text fill="#000000" font-family="sans-serif" font-size="14" lengthAdjust="spacing" textLength="61" x="164.5" y="41.5332">via_angle</text></g><!--link pybind11 to numpy--><g id="link_pybind11_numpy"><path d="M350,199 C350,216.66 350,240.94 350,258.68 " fill="none" id="pybind11-numpy" style="stroke:#181818;stroke-width:1.0;"/></g><!--link via_angle to gsl--><g id="link_via_angle_gsl"><path d="M149.46,38.61 C131.8,43.06 112.94,50.52 99,63 C73.19,86.11 60.71,125.54 55.1,150.65 " fill="none" id="via_angle-gsl" style="stroke:#181818;stroke-width:1.0;"/></g><!--link via_angle to pybind11--><g id="link_via_angle_pybind11"><path d="M228.08,55.13 C231.12,57.75 234.15,60.41 237,63 C269.38,92.38 305.13,128.09 327.57,150.92 " fill="none" id="via_angle-pybind11" style="stroke:#181818;stroke-width:1.0;"/></g><!--SRC=[bP0nJmCn38Nt_0fB30LLhMZ5rAtgobGGQ-KcLYuYvqI9gHGX_ZjfuAuzqGKF7fw_vsTvjWkn96SxWNlz0El7zHEyEOHNqXq77so1Pp5Bs7eF-pEMOK-PqedCKgaPY1DFi6LRkw58R92rewnK9W76dd94JIyKCQ6419kDWbewz34miS39uG6R_owY9vk8k27LzuwMO3UVmsTJfaQR_QWEh52MAtXgE8QGvN16Hk1BNVgm8nRf0j-CZENesAnMDqRyqSVoltjgqDzRclit1XQBgxq_yzOkFwl4y8U9E5xw3G00]--></g></svg>