<svg xmlns="http://www.w3.org/2000/svg" xmlns:xlink="http://www.w3.org/1999/xlink" contentStyleType="text/css" height="344px" preserveAspectRatio="none" style="width:394px;height:344px;background:#FFFFFF;" version="1.1" viewBox="0 0 394 344" width="394px" zoomAndPan="magnify"><defs/><g><!--cluster trig--><g id="cluster_trig"><path d="M233.5,237 L258.5,237 A3.75,3.75 0 0 1 261,239.5 L268,260.6094 L384.5,260.6094 A2.5,2.5 0 0 1 387,263.1094 L387,334.5 A2.5,2.5 0 0 1 384.5,337 L233.5,337 A2.5,2.5 0 0 1 231,334.5 L231,239.5 A2.5,2.5 0 0 1 233.5,237 " fill="none" style="stroke:#000000;stroke-width:1.5;"/><line style="stroke:#000000;stroke-width:1.5;" x1="231" x2="268" y1="260.6094" y2="260.6094"/><text fill="#000000" font-family="sans-serif" font-size="14" font-weight="bold" lengthAdjust="spacing" textLength="24" x="235" y="253.5332">trig</text></g><!--class UnitNegRange--><g id="elem_UnitNegRange"><rect fill="#F1F1F1" height="48" id="UnitNegRange" rx="2.5" ry="2.5" style="stroke:#181818;stroke-width:0.5;" width="123" x="247.5" y="273"/><ellipse cx="262.5" cy="289" fill="#ADD1B2" rx="11" ry="11" style="stroke:#181818;stroke-width:1.0;"/><path d="M265.2656,284.875 Q265.4219,284.6563 265.6094,284.5469 Q265.7969,284.4375 266.0156,284.4375 Q266.3906,284.4375 266.625,284.6953 Q266.8594,284.9531 266.8594,285.5625 L266.8594,287.0156 Q266.8594,287.625 266.625,287.8906 Q266.3906,288.1563 266.0156,288.1563 Q265.6719,288.1563 265.4688,287.9531 Q265.2656,287.7656 265.1563,287.25 Q265.1094,286.8906 264.9219,286.7031 Q264.5938,286.3281 263.9844,286.1094 Q263.375,285.8906 262.75,285.8906 Q261.9844,285.8906 261.3516,286.2188 Q260.7188,286.5469 260.2266,287.2969 Q259.7344,288.0469 259.7344,289.0781 L259.7344,290.1719 Q259.7344,291.4063 260.625,292.2266 Q261.5156,293.0469 263.1094,293.0469 Q264.0469,293.0469 264.7031,292.7969 Q265.0938,292.6406 265.5156,292.2031 Q265.7813,291.9375 265.9297,291.8594 Q266.0781,291.7813 266.2813,291.7813 Q266.6094,291.7813 266.8672,292.0391 Q267.125,292.2969 267.125,292.6406 Q267.125,292.9844 266.7813,293.3906 Q266.2813,293.9688 265.4844,294.2969 Q264.4063,294.75 263.1094,294.75 Q261.5938,294.75 260.3906,294.125 Q259.4063,293.625 258.7188,292.5547 Q258.0313,291.4844 258.0313,290.2031 L258.0313,289.0469 Q258.0313,287.7188 258.6484,286.5703 Q259.2656,285.4219 260.3594,284.8047 Q261.4531,284.1875 262.6875,284.1875 Q263.4219,284.1875 264.0703,284.3516 Q264.7188,284.5156 265.2656,284.875 Z " fill="#000000"/><text fill="#000000" font-family="sans-serif" font-size="14" lengthAdjust="spacing" textLength="91" x="276.5" y="294.7285">UnitNegRange</text><line style="stroke:#181818;stroke-width:0.5;" x1="248.5" x2="369.5" y1="305" y2="305"/><line style="stroke:#181818;stroke-width:0.5;" x1="248.5" x2="369.5" y1="313" y2="313"/></g><!--class Angle--><g id="elem_Angle"><rect codeLine="7" fill="#F1F1F1" height="206.4844" id="Angle" rx="2.5" ry="2.5" style="stroke:#181818;stroke-width:0.5;" width="136" x="102" y="7"/><ellipse cx="147.75" cy="23" fill="#ADD1B2" rx="11" ry="11" style="stroke:#181818;stroke-width:1.0;"/><path d="M150.5156,18.875 Q150.6719,18.6563 150.8594,18.5469 Q151.0469,18.4375 151.2656,18.4375 Q151.6406,18.4375 151.875,18.6953 Q152.1094,18.9531 152.1094,19.5625 L152.1094,21.0156 Q152.1094,21.625 151.875,21.8906 Q151.6406,22.1563 151.2656,22.1563 Q150.9219,22.1563 150.7188,21.9531 Q150.5156,21.7656 150.4063,21.25 Q150.3594,20.8906 150.1719,20.7031 Q149.8438,20.3281 149.2344,20.1094 Q148.625,19.8906 148,19.8906 Q147.2344,19.8906 146.6016,20.2188 Q145.9688,20.5469 145.4766,21.2969 Q144.9844,22.0469 144.9844,23.0781 L144.9844,24.1719 Q144.9844,25.4063 145.875,26.2266 Q146.7656,27.0469 148.3594,27.0469 Q149.2969,27.0469 149.9531,26.7969 Q150.3438,26.6406 150.7656,26.2031 Q151.0313,25.9375 151.1797,25.8594 Q151.3281,25.7813 151.5313,25.7813 Q151.8594,25.7813 152.1172,26.0391 Q152.375,26.2969 152.375,26.6406 Q152.375,26.9844 152.0313,27.3906 Q151.5313,27.9688 150.7344,28.2969 Q149.6563,28.75 148.3594,28.75 Q146.8438,28.75 145.6406,28.125 Q144.6563,27.625 143.9688,26.5547 Q143.2813,25.4844 143.2813,24.2031 L143.2813,23.0469 Q143.2813,21.7188 143.8984,20.5703 Q144.5156,19.4219 145.6094,18.8047 Q146.7031,18.1875 147.9375,18.1875 Q148.6719,18.1875 149.3203,18.3516 Q149.9688,18.5156 150.5156,18.875 Z " fill="#000000"/><text fill="#000000" font-family="sans-serif" font-size="14" lengthAdjust="spacing" textLength="36" x="168.25" y="28.7285">Angle</text><line style="stroke:#181818;stroke-width:0.5;" x1="103" x2="237" y1="39" y2="39"/><rect fill="none" height="6" style="stroke:#C82930;stroke-width:1.0;" width="6" x="110" y="50.3047"/><text fill="#000000" font-family="sans-serif" font-size="14" lengthAdjust="spacing" textLength="18" x="122" y="57.5332">sin</text><rect fill="none" height="6" style="stroke:#C82930;stroke-width:1.0;" width="6" x="110" y="67.9141"/><text fill="#000000" font-family="sans-serif" font-size="14" lengthAdjust="spacing" textLength="22" x="122" y="75.1426">cos</text><line style="stroke:#181818;stroke-width:1.0;" x1="103" x2="237" y1="82.2188" y2="82.2188"/><ellipse cx="113" cy="96.5234" fill="none" rx="3" ry="3" style="stroke:#038048;stroke-width:1.0;"/><text fill="#000000" font-family="sans-serif" font-size="14" lengthAdjust="spacing" textLength="23" x="122" y="100.752">abs</text><ellipse cx="113" cy="114.1328" fill="none" rx="3" ry="3" style="stroke:#038048;stroke-width:1.0;"/><text fill="#000000" font-family="sans-serif" font-size="14" lengthAdjust="spacing" textLength="54" x="122" y="118.3613">opposite</text><ellipse cx="113" cy="131.7422" fill="none" rx="3" ry="3" style="stroke:#038048;stroke-width:1.0;"/><text fill="#000000" font-family="sans-serif" font-size="14" lengthAdjust="spacing" textLength="103" x="122" y="135.9707">quarter_turn_cw</text><ellipse cx="113" cy="149.3516" fill="none" rx="3" ry="3" style="stroke:#038048;stroke-width:1.0;"/><text fill="#000000" font-family="sans-serif" font-size="14" lengthAdjust="spacing" textLength="110" x="122" y="153.5801">quarter_turn_ccw</text><ellipse cx="113" cy="166.9609" fill="none" rx="3" ry="3" style="stroke:#038048;stroke-width:1.0;"/><text fill="#000000" font-family="sans-serif" font-size="14" lengthAdjust="spacing" textLength="74" x="122" y="171.1895">negate_cos</text><ellipse cx="113" cy="184.5703" fill="none" rx="3" ry="3" style="stroke:#038048;stroke-width:1.0;"/><text fill="#000000" font-family="sans-serif" font-size="14" lengthAdjust="spacing" textLength="14" x="122" y="188.7988">x2</text><ellipse cx="113" cy="202.1797" fill="none" rx="3" ry="3" style="stroke:#038048;stroke-width:1.0;"/><text fill="#000000" font-family="sans-serif" font-size="14" lengthAdjust="spacing" textLength="23" x="122" y="206.4082">half</text></g><!--class Degrees--><g id="elem_Degrees"><rect fill="#F1F1F1" height="48" id="Degrees" rx="2.5" ry="2.5" style="stroke:#181818;stroke-width:0.5;" width="86" x="7" y="273"/><ellipse cx="22" cy="289" fill="#ADD1B2" rx="11" ry="11" style="stroke:#181818;stroke-width:1.0;"/><path d="M24.7656,284.875 Q24.9219,284.6563 25.1094,284.5469 Q25.2969,284.4375 25.5156,284.4375 Q25.8906,284.4375 26.125,284.6953 Q26.3594,284.9531 26.3594,285.5625 L26.3594,287.0156 Q26.3594,287.625 26.125,287.8906 Q25.8906,288.1563 25.5156,288.1563 Q25.1719,288.1563 24.9688,287.9531 Q24.7656,287.7656 24.6563,287.25 Q24.6094,286.8906 24.4219,286.7031 Q24.0938,286.3281 23.4844,286.1094 Q22.875,285.8906 22.25,285.8906 Q21.4844,285.8906 20.8516,286.2188 Q20.2188,286.5469 19.7266,287.2969 Q19.2344,288.0469 19.2344,289.0781 L19.2344,290.1719 Q19.2344,291.4063 20.125,292.2266 Q21.0156,293.0469 22.6094,293.0469 Q23.5469,293.0469 24.2031,292.7969 Q24.5938,292.6406 25.0156,292.2031 Q25.2813,291.9375 25.4297,291.8594 Q25.5781,291.7813 25.7813,291.7813 Q26.1094,291.7813 26.3672,292.0391 Q26.625,292.2969 26.625,292.6406 Q26.625,292.9844 26.2813,293.3906 Q25.7813,293.9688 24.9844,294.2969 Q23.9063,294.75 22.6094,294.75 Q21.0938,294.75 19.8906,294.125 Q18.9063,293.625 18.2188,292.5547 Q17.5313,291.4844 17.5313,290.2031 L17.5313,289.0469 Q17.5313,287.7188 18.1484,286.5703 Q18.7656,285.4219 19.8594,284.8047 Q20.9531,284.1875 22.1875,284.1875 Q22.9219,284.1875 23.5703,284.3516 Q24.2188,284.5156 24.7656,284.875 Z " fill="#000000"/><text fill="#000000" font-family="sans-serif" font-size="14" lengthAdjust="spacing" textLength="54" x="36" y="294.7285">Degrees</text><line style="stroke:#181818;stroke-width:0.5;" x1="8" x2="92" y1="305" y2="305"/><line style="stroke:#181818;stroke-width:0.5;" x1="8" x2="92" y1="313" y2="313"/></g><!--class Radians--><g id="elem_Radians"><rect fill="#F1F1F1" height="48" id="Radians" rx="2.5" ry="2.5" style="stroke:#181818;stroke-width:0.5;" width="84" x="128" y="273"/><ellipse cx="143" cy="289" fill="#ADD1B2" rx="11" ry="11" style="stroke:#181818;stroke-width:1.0;"/><path d="M145.7656,284.875 Q145.9219,284.6563 146.1094,284.5469 Q146.2969,284.4375 146.5156,284.4375 Q146.8906,284.4375 147.125,284.6953 Q147.3594,284.9531 147.3594,285.5625 L147.3594,287.0156 Q147.3594,287.625 147.125,287.8906 Q146.8906,288.1563 146.5156,288.1563 Q146.1719,288.1563 145.9688,287.9531 Q145.7656,287.7656 145.6563,287.25 Q145.6094,286.8906 145.4219,286.7031 Q145.0938,286.3281 144.4844,286.1094 Q143.875,285.8906 143.25,285.8906 Q142.4844,285.8906 141.8516,286.2188 Q141.2188,286.5469 140.7266,287.2969 Q140.2344,288.0469 140.2344,289.0781 L140.2344,290.1719 Q140.2344,291.4063 141.125,292.2266 Q142.0156,293.0469 143.6094,293.0469 Q144.5469,293.0469 145.2031,292.7969 Q145.5938,292.6406 146.0156,292.2031 Q146.2813,291.9375 146.4297,291.8594 Q146.5781,291.7813 146.7813,291.7813 Q147.1094,291.7813 147.3672,292.0391 Q147.625,292.2969 147.625,292.6406 Q147.625,292.9844 147.2813,293.3906 Q146.7813,293.9688 145.9844,294.2969 Q144.9063,294.75 143.6094,294.75 Q142.0938,294.75 140.8906,294.125 Q139.9063,293.625 139.2188,292.5547 Q138.5313,291.4844 138.5313,290.2031 L138.5313,289.0469 Q138.5313,287.7188 139.1484,286.5703 Q139.7656,285.4219 140.8594,284.8047 Q141.9531,284.1875 143.1875,284.1875 Q143.9219,284.1875 144.5703,284.3516 Q145.2188,284.5156 145.7656,284.875 Z " fill="#000000"/><text fill="#000000" font-family="sans-serif" font-size="14" lengthAdjust="spacing" textLength="52" x="157" y="294.7285">Radians</text><line style="stroke:#181818;stroke-width:0.5;" x1="129" x2="211" y1="305" y2="305"/><line style="stroke:#181818;stroke-width:0.5;" x1="129" x2="211" y1="313" y2="313"/></g><!--link Angle to Degrees--><g id="link_Angle_Degrees"><path codeLine="20" d="M103.68,213.24 C89.16,235.64 75.13,257.26 65.06,272.79 " fill="none" id="Angle-Degrees" style="stroke:#181818;stroke-width:1.0;stroke-dasharray:7.0,7.0;"/></g><!--link Angle to Radians--><g id="link_Angle_Radians"><path codeLine="21" d="M170,213.24 C170,235.64 170,257.26 170,272.79 " fill="none" id="Angle-Radians" style="stroke:#181818;stroke-width:1.0;stroke-dasharray:7.0,7.0;"/></g><!--reverse link Angle to UnitNegRange--><g id="link_Angle_UnitNegRange"><path codeLine="22" d="M245.2799,211.1926 C265.0999,237.5626 277.85,254.54 291.53,272.75 " fill="none" id="Angle-backto-UnitNegRange" style="stroke:#181818;stroke-width:1.0;"/><polygon fill="#181818" points="238.07,201.6,238.4774,208.7996,245.2799,211.1926,244.8725,203.993,238.07,201.6" style="stroke:#181818;stroke-width:1.0;"/><text fill="#000000" font-family="sans-serif" font-size="13" lengthAdjust="spacing" textLength="7" x="279.1564" y="262.0261">2</text></g><!--SRC=[TP1DJyCm38Rl-HNMBWEcLgZYrDkq7ISEvUDQcTIaaR8as1um8VuxNIT1Ti07syzhMvQztAHyPEz6XIjx3SrjSmVF7k6Hx1XJIEu8EnrgM8S0tQbDe2CXVgUXDcO9wZKGhAER_2QW26mzEiQzCK8A4VSa6IqzK4P6JGnjQs0oEpUV1xzcvMGLY8y5sIH_LFscAy0NAIZbdCGh5TBR0Lc9UprmxEt7lvMBKYI7IdsvTGMVJG4ZXjSPlyqSpWVKDMp9CP5SYXqE7cCftbGLB9e5wFJpjdsANk_9THWT_G00]--></g></svg>